HIERARCHY
ROOT Hips
{
	OFFSET 0.000000 0.000000 0.000000
	CHANNELS 6 Xposition Yposition Zposition Zrotation Yrotation Xrotation 
	JOINT LHipJoint
	{
		OFFSET 0.000000 0.000000 0.000000
		CHANNELS 3 Zrotation Yrotation Xrotation
		JOINT LeftUpLeg
		{
			OFFSET 1.363060 -1.794630 0.839290
			CHANNELS 3 Zrotation Yrotation Xrotation
			JOINT LeftLeg
			{
				OFFSET 2.448110 -6.726130 0.000000
				CHANNELS 3 Zrotation Yrotation Xrotation
				JOINT LeftFoot
				{
					OFFSET 2.562200 -7.039590 0.000000
					CHANNELS 3 Zrotation Yrotation Xrotation
					JOINT LeftToeBase
					{
						OFFSET 0.157640 -0.433110 2.322550
						CHANNELS 3 Zrotation Yrotation Xrotation
						End Site
						{
							OFFSET 0.000000 0.000000 0.000000
						}
					}
				}
			}
		}
	}
	JOINT RHipJoint
	{
		OFFSET 0.000000 0.000000 0.000000
		CHANNELS 3 Zrotation Yrotation Xrotation
		JOINT RightUpLeg
		{
			OFFSET -1.305520 -1.794630 0.839290
			CHANNELS 3 Zrotation Yrotation Xrotation
			JOINT RightLeg
			{
				OFFSET -2.542530 -6.985550 0.000000
				CHANNELS 3 Zrotation Yrotation Xrotation
				JOINT RightFoot
				{
					OFFSET -2.568260 -7.056230 0.000000
					CHANNELS 3 Zrotation Yrotation Xrotation
					JOINT RightToeBase
					{
						OFFSET -0.164730 -0.452590 2.363150
						CHANNELS 3 Zrotation Yrotation Xrotation
						End Site
						{
							OFFSET 0.000000 0.000000 0.000000
						}
					}
				}
			}
		}
	}
}
MOTION
Frames: 33
Frame Time: 0.008333
-12.565546 16.053738 -1.569324 -38.547294 83.665174 -6.194694 -8.461505 -1.967337 -0.520628 -10.496107 0.765013 -70.498621 -1.810991 3.257654 42.972655 1.903419 7.565725 -6.543058 0.705799 -0.000000 -16.220700 11.209656 0.486634 -5.539793 8.111143 -11.187674 -40.899003 -0.275508 -5.127911 65.308978 0.615647 12.189489 9.712400 3.515900 -0.000000 -90.199800
-12.419120 16.030810 -1.586254 -37.235946 83.704649 -5.181921 -8.481688 -1.959771 -0.676220 -10.715749 0.840711 -70.254487 -1.735466 3.385958 44.545159 1.968552 7.766327 -7.556373 0.539800 -0.000000 -16.077099 11.254605 0.546532 -5.493716 7.553296 -11.105534 -40.729760 -0.449001 -5.135226 66.200470 0.521420 12.130654 11.125900 3.826900 -0.000000 -89.697301
-12.274586 16.010194 -1.602859 -35.975617 83.756943 -4.200756 -8.501595 -1.955121 -0.825775 -10.924301 0.885126 -69.929197 -1.674353 3.489353 45.963372 2.048979 8.009343 -8.733933 0.342900 -0.000000 -16.198100 11.290465 0.607311 -5.443011 7.046801 -10.957641 -40.610548 -0.623101 -5.139371 67.102989 0.408199 11.961853 12.686633 4.134300 0.000000 -88.963300
-12.132029 15.991907 -1.619267 -34.775396 83.815608 -3.262316 -8.521774 -1.954231 -0.969309 -11.109052 0.896588 -69.522680 -1.623279 3.569330 47.228871 2.142921 8.297468 -10.003874 0.121300 0.000000 -16.540100 11.317796 0.669289 -5.388727 6.595226 -10.742762 -40.532083 -0.793412 -5.139303 68.006475 0.277296 11.681784 14.362856 4.419600 -0.000000 -87.950900
-11.991150 15.975782 -1.635781 -33.732436 83.867979 -2.455690 -8.543326 -1.959249 -1.101912 -11.250129 0.879556 -69.059810 -1.576953 3.628678 48.355720 2.247623 8.628507 -11.295269 -0.117100 -0.000000 -17.033600 11.336562 0.730850 -5.325549 6.217277 -10.449181 -40.508251 -0.957698 -5.133635 68.909920 0.127690 11.277244 16.162717 4.666500 -0.000000 -86.607900
-11.852068 15.961766 -1.652267 -32.839238 83.911627 -1.775871 -8.566411 -1.969776 -1.224354 -11.344392 0.833865 -68.547445 -1.531638 3.670025 49.355613 2.359788 8.999925 -12.546902 -0.364500 0.000000 -17.601300 11.347538 0.792798 -5.255560 5.910894 -10.081169 -40.532361 -1.112236 -5.122881 69.810832 -0.037483 10.728865 18.004996 4.836000 0.000000 -84.829800
-11.714694 15.949726 -1.668706 -32.133314 83.942145 -1.257339 -8.591417 -1.985848 -1.334822 -11.387978 0.763384 -68.006303 -1.484121 3.696682 50.246325 2.475685 9.404796 -13.711521 -0.613000 -0.000000 -18.158800 11.351157 0.854505 -5.177625 5.681980 -9.639333 -40.611776 -1.255761 -5.108010 70.713549 -0.215961 10.005268 19.819604 4.886500 0.000000 -82.538400
-11.578990 15.939559 -1.684923 -31.615896 83.959075 -0.900448 -8.618495 -2.006546 -1.433174 -11.384699 0.672629 -67.452341 -1.432892 3.711891 51.044212 2.591556 9.833432 -14.759504 -0.855800 -0.000000 -18.637600 11.347993 0.916020 -5.092732 5.529823 -9.131668 -40.752344 -1.388602 -5.091173 71.624593 -0.404707 9.069743 21.513369 4.771899 -0.000000 -79.690001
-11.445000 15.931221 -1.700674 -31.276795 83.963750 -0.695341 -8.647633 -2.030685 -1.519879 -11.342453 0.568414 -66.899925 -1.377977 3.718681 51.763257 2.704048 10.274038 -15.678178 -1.087600 0.000001 -18.996400 11.338653 0.977115 -5.002071 5.451963 -8.567952 -40.960325 -1.513054 -5.075077 72.551645 -0.600627 7.886019 22.982796 4.450200 -0.000000 -76.294500
-11.312796 15.924724 -1.715728 -31.092564 83.959515 -0.619728 -8.678628 -2.056795 -1.596779 -11.272815 0.458809 -66.357254 -1.320947 3.719516 52.412989 2.810337 10.712990 -16.470994 -1.305200 -0.000000 -19.224300 11.323829 1.037766 -4.907938 5.442584 -7.961508 -41.239686 -1.632634 -5.062697 73.499882 -0.801054 6.429591 24.127456 3.895500 0.000000 -72.440000
-11.182290 15.919991 -1.729877 -31.055745 83.949142 -0.664462 -8.711296 -2.083654 -1.663922 -11.185705 0.352891 -65.836388 -1.264108 3.716496 53.001213 2.908508 11.135975 -17.154033 -1.507800 -0.000001 -19.331700 11.303863 1.097359 -4.810178 5.499040 -7.322471 -41.601288 -1.751562 -5.056542 74.474123 -1.004444 4.694259 24.866412 3.106900 0.000000 -68.278000
-11.053645 15.917192 -1.742907 -31.131093 83.937091 -0.798752 -8.745095 -2.109990 -1.725508 -11.094389 0.260850 -65.332730 -1.210948 3.710768 53.527532 2.997289 11.530239 -17.752209 -1.696800 -0.000000 -19.351600 11.279435 1.156037 -4.711953 5.611582 -6.664193 -42.041686 -1.873117 -5.058860 75.470279 -1.208837 2.708985 25.132825 2.117900 0.000000 -64.004600
-10.926831 15.916360 -1.754741 -31.312400 83.926563 -1.017161 -8.779623 -2.135032 -1.783218 -11.007013 0.191562 -64.846618 -1.164602 3.703099 53.991243 3.076272 11.884779 -18.293892 -1.875200 0.000000 -19.321699 11.250849 1.213158 -4.613538 5.774728 -5.994910 -42.563133 -1.999393 -5.070959 76.481661 -1.412614 0.532255 24.893279 0.993399 0.000000 -59.810700
-10.801812 15.917557 -1.765353 -31.592174 83.919852 -1.314277 -8.814474 -2.158222 -1.839360 -10.929962 0.152257 -64.372789 -1.127945 3.693625 54.388280 3.145504 12.191316 -18.806002 -2.046600 0.000000 -19.281800 11.218321 1.268149 -4.515528 5.981859 -5.321685 -43.163385 -2.130565 -5.093432 77.495687 -1.613442 -1.749264 24.143239 -0.177699 0.000000 -55.846100
-10.678532 15.920868 -1.774796 -31.967958 83.918763 -1.690046 -8.849338 -2.179276 -1.896089 -10.866422 0.148082 -63.903381 -1.103139 3.682105 54.713698 3.205392 12.444922 -19.310539 -2.214200 -0.000000 -19.268200 11.181919 1.320440 -4.418388 6.226532 -4.650395 -43.837558 -2.264791 -5.126049 78.494833 -1.808128 -4.031873 22.910243 -1.296100 -0.000000 -52.207300
-10.556916 15.926294 -1.783104 -32.433568 83.924711 -2.140946 -8.884101 -2.197879 -1.954372 -10.817284 0.179780 -63.430377 -1.091200 3.667948 54.963320 3.256678 12.644793 -19.820951 -2.380000 0.000001 -19.307200 11.141505 1.369440 -4.322118 6.502329 -3.986753 -44.580149 -2.398678 -5.167940 79.459426 -1.992684 -6.212083 21.244914 -2.271299 0.000000 -48.912000
-10.436883 15.933876 -1.790397 -32.983268 83.938954 -2.665315 -8.918721 -2.213953 -2.015363 -10.781363 0.245811 -62.943950 -1.092251 3.650431 55.133854 3.299854 12.792035 -20.341879 -2.544300 -0.000001 -19.416899 11.096727 1.414943 -4.227151 6.802657 -3.336420 -45.382020 -2.527256 -5.217412 80.365592 -2.162730 -8.197824 19.226318 -3.034500 0.000000 -45.965800
-10.318214 15.943540 -1.796787 -33.613740 83.961874 -3.262106 -8.953158 -2.227566 -2.079656 -10.755350 0.342169 -62.436575 -1.105467 3.628883 55.223758 3.335372 12.890245 -20.869347 -2.705400 0.000001 -19.603900 11.046993 1.457127 -4.134031 7.122356 -2.704611 -46.233737 -2.644787 -5.272168 81.188601 -2.313840 -9.918857 16.953531 -3.548999 -0.000000 -43.347099
-10.200730 15.955207 -1.802318 -34.315910 83.995206 -3.926091 -8.987554 -2.238501 -2.146977 -10.736307 0.461447 -61.901217 -1.129109 3.602647 55.234740 3.363572 12.944931 -21.392813 -2.860201 0.000000 -19.859600 10.991601 1.496396 -4.043352 7.455992 -2.098052 -47.125088 -2.745677 -5.329760 81.905219 -2.442323 -11.335072 14.530376 -3.813401 0.000000 -41.033900
-10.084260 15.968760 -1.807009 -35.075587 84.040905 -4.646068 -9.021926 -2.246502 -2.216718 -10.720945 0.595042 -61.333792 -1.160993 3.571370 55.170736 3.384739 12.962737 -21.898123 -3.005200 0.000000 -20.165100 10.929874 1.533594 -3.956140 7.799327 -1.523605 -48.045911 -2.825166 -5.387718 82.495281 -2.545688 -12.434032 12.061107 -3.855200 -0.000000 -39.011500
-9.968599 15.984032 -1.810794 -35.878731 84.101227 -5.411280 -9.056286 -2.251120 -2.288006 -10.707335 0.733885 -60.731905 -1.198724 3.534929 55.038040 3.399083 12.950453 -22.370599 -3.136800 0.000000 -20.491100 10.861297 1.569676 -3.873629 8.148217 -0.988983 -48.986170 -2.879823 -5.443907 82.942413 -2.623177 -13.228644 9.639195 -3.721600 -0.000000 -37.267600
-9.853546 16.000857 -1.813612 -36.714294 84.178737 -6.212612 -9.090515 -2.251873 -2.359735 -10.694156 0.869303 -60.096208 -1.239970 3.493526 54.844728 3.406905 12.914796 -22.797594 -3.252300 -0.000000 -20.808600 10.785547 1.605650 -3.797189 8.500239 -0.501453 -49.938068 -2.907906 -5.496733 83.235936 -2.675991 -13.751401 7.337865 -3.467700 -0.000000 -35.771001
-9.738926 16.019076 -1.815331 -37.569258 84.275851 -7.038548 -9.124429 -2.248188 -2.430951 -10.681720 0.994702 -59.429161 -1.282854 3.447664 54.599595 3.408619 12.861674 -23.170738 -3.350000 0.000000 -21.089600 10.702566 1.642438 -3.728051 8.853287 -0.067429 -50.895468 -2.909304 -5.545189 83.371092 -2.707492 -14.049372 5.205886 -3.145900 -0.000001 -34.474100
-9.624512 16.038475 -1.815837 -38.433764 84.394052 -7.879308 -9.157772 -2.239515 -2.500755 -10.671551 1.105915 -58.735114 -1.326114 3.397991 54.310683 3.404736 12.795571 -23.486501 -3.429700 0.000000 -21.315700 10.612467 1.680658 -3.667026 9.206217 0.308334 -51.854907 -2.885119 -5.588914 83.348757 -2.722720 -14.176717 3.263915 -2.797900 0.000000 -33.289300
-9.510375 16.058877 -1.814968 -39.304375 84.534843 -8.732328 -9.190414 -2.225793 -2.568505 -10.665243 1.200947 -58.019385 -1.368821 3.345239 53.986359 3.395866 12.720159 -23.745076 -3.492000 -0.000000 -21.491700 10.515304 1.720613 -3.614408 9.558315 0.623273 -52.814800 -2.837391 -5.627920 83.174235 -2.728676 -14.193727 1.516583 -2.455100 -0.000000 -32.160700
-9.396158 16.080151 -1.812719 -40.182443 84.696235 -9.595509 -9.222184 -2.207026 -2.633860 -10.664558 1.282645 -57.289200 -1.411077 3.290242 53.632108 3.382624 12.636339 -23.952510 -3.538800 -0.000000 -21.621299 10.411162 1.761962 -3.569622 9.910885 0.878178 -53.777027 -2.768243 -5.662805 82.856780 -2.732145 -14.152904 -0.062053 -2.132100 0.000000 -30.951700
-9.281818 16.102124 -1.809073 -41.073751 84.875741 -10.472569 -9.253125 -2.183783 -2.696716 -10.670771 1.355287 -56.551626 -1.453133 3.233679 53.252658 3.365633 12.544596 -24.116025 -3.571900 -0.000000 -21.729700 10.299872 1.803919 -3.531307 10.265043 1.076621 -54.744213 -2.679788 -5.694174 82.406287 -2.740174 -14.101808 -1.501314 -1.835201 0.000000 -29.585600
-9.167314 16.124699 -1.804097 -41.978930 85.068875 -11.361423 -9.283403 -2.156785 -2.757281 -10.684174 1.425754 -55.812971 -1.495655 3.176146 52.850712 3.345429 12.444263 -24.244289 -3.593600 -0.000001 -21.846000 10.181200 1.845281 -3.497367 10.622500 1.224957 -55.719622 -2.573734 -5.722603 81.832325 -2.758464 -14.074623 -2.836444 -1.562700 -0.000001 -27.997200
-9.052419 16.147754 -1.797943 -42.908970 85.269418 -12.268349 -9.313328 -2.127095 -2.815764 -10.703815 1.501725 -55.080053 -1.539344 3.118056 52.427637 3.322417 12.333984 -24.345199 -3.605500 0.000000 -22.001800 10.054742 1.884206 -3.464884 10.985541 1.332314 -56.706411 -2.451109 -5.748428 81.141297 -2.790790 -14.090271 -4.098841 -1.308900 -0.000000 -26.154300
-8.937228 16.171137 -1.790767 -43.869561 85.470241 -13.196153 -9.343343 -2.096018 -2.872534 -10.727042 1.590346 -54.358909 -1.584502 3.059782 51.985430 3.296902 12.213281 -24.423739 -3.608800 0.000000 -22.232900 9.920088 1.918579 -3.430673 11.356678 1.409495 -57.705488 -2.312572 -5.771431 80.335291 -2.838864 -14.154102 -5.305161 -1.068500 0.000000 -24.095100
-8.821670 16.194747 -1.782751 -44.859674 85.663930 -14.140407 -9.373860 -2.064612 -2.927978 -10.750728 1.697944 -53.654205 -1.631293 3.001582 51.525017 3.269074 12.082106 -24.482263 -3.604000 0.000000 -22.569800 9.777052 1.946143 -3.391241 11.737873 1.468459 -58.715255 -2.158331 -5.790833 79.411411 -2.901756 -14.256769 -6.459225 -0.838300 0.000000 -21.898500
-8.705487 16.218484 -1.774096 -45.868777 85.843372 -15.087194 -9.405122 -2.033555 -2.982269 -10.771654 1.829329 -52.970272 -1.679813 2.943746 51.047470 3.238941 11.939915 -24.522011 -3.591400 0.000000 -23.023700 9.625930 1.964624 -3.343102 12.130318 1.520550 -59.730621 -1.988497 -5.805277 78.362281 -2.975907 -14.377426 -7.546363 -0.619300 0.000000 -19.712800
-8.588699 16.242210 -1.764928 -46.880648 86.002725 -16.018763 -9.437291 -2.003370 -3.035737 -10.786239 1.986378 -52.310037 -1.729468 2.886642 50.556232 3.206567 11.788485 -24.540536 -3.570800 0.000001 -23.605801 9.467360 1.972002 -3.283321 12.534660 1.576483 -60.743248 -1.803339 -5.812850 77.176201 -3.056375 -14.492717 -8.535595 -0.418700 0.000001 -17.727900
